<svg width="406" height="73" viewBox="0 0 406 73" fill="none" xmlns="http://www.w3.org/2000/svg">
<path d="M0 35.7417C0 30.9315 3.89943 27.032 8.70962 27.032V27.032C13.5198 27.032 17.4192 30.9315 17.4192 35.7417V58.9673C17.4192 63.7775 13.5198 67.6769 8.70962 67.6769V67.6769C3.89943 67.6769 0 63.7775 0 58.9673V35.7417Z" fill="#FF0000"/>
<path d="M0 35.7417C0 30.9315 3.89943 27.032 8.70962 27.032V27.032C13.5198 27.032 17.4192 30.9315 17.4192 35.7417V53.1609C17.4192 57.9711 13.5198 61.8705 8.70962 61.8705V61.8705C3.89943 61.8705 0 57.9711 0 53.1609V35.7417Z" fill="#FF459E"/>
<path d="M0 35.7417C0 30.9315 3.89943 27.032 8.70962 27.032V27.032C13.5198 27.032 17.4192 30.9315 17.4192 35.7417V50.2577C17.4192 55.0679 13.5198 58.9673 8.70962 58.9673V58.9673C3.89943 58.9673 0 55.0679 0 50.2577V35.7417Z" fill="#C04FB5"/>
<path d="M0 35.7417C0 30.9315 3.89943 27.032 8.70962 27.032V27.032C13.5198 27.032 17.4192 30.9315 17.4192 35.7417V44.4513C17.4192 49.2615 13.5198 53.1609 8.70962 53.1609V53.1609C3.89943 53.1609 0 49.2615 0 44.4513V35.7417Z" fill="#AE38B0"/>
<path d="M0 35.7417C0 30.9315 3.89943 27.032 8.70962 27.032V27.032C13.5198 27.032 17.4192 30.9315 17.4192 35.7417V44.4513C17.4192 49.2615 13.5198 53.1609 8.70962 53.1609V53.1609C3.89943 53.1609 0 49.2615 0 44.4513V35.7417Z" fill="#AE38B0"/>
<path d="M0 35.7417C0 30.9315 3.89943 27.032 8.70962 27.032V27.032C13.5198 27.032 17.4192 30.9315 17.4192 35.7417V44.4513C17.4192 49.2615 13.5198 53.1609 8.70962 53.1609V53.1609C3.89943 53.1609 0 49.2615 0 44.4513V35.7417Z" fill="#AE38B0"/>
<path d="M366 12.5C366 7.80558 369.806 4 374.5 4V4C379.194 4 383 7.80558 383 12.5V57.5C383 62.1944 379.194 66 374.5 66V66C369.806 66 366 62.1944 366 57.5V12.5Z" fill="#FF0000"/>
<path d="M366 12.5C366 7.80558 369.806 4 374.5 4V4C379.194 4 383 7.80558 383 12.5V49.5C383 54.1944 379.194 58 374.5 58V58C369.806 58 366 54.1944 366 49.5V12.5Z" fill="#FF459E"/>
<path d="M366 12.5C366 7.80558 369.806 4 374.5 4V4C379.194 4 383 7.80558 383 12.5V43.5C383 48.1944 379.194 52 374.5 52V52C369.806 52 366 48.1944 366 43.5V12.5Z" fill="#C04FB5"/>
<path d="M366 12.5C366 7.80558 369.806 4 374.5 4V4C379.194 4 383 7.80558 383 12.5V34.5C383 39.1944 379.194 43 374.5 43V43C369.806 43 366 39.1944 366 34.5V12.5Z" fill="#AE38B0"/>
<path d="M366 12.5C366 7.80558 369.806 4 374.5 4V4C379.194 4 383 7.80558 383 12.5V34.5C383 39.1944 379.194 43 374.5 43V43C369.806 43 366 39.1944 366 34.5V12.5Z" fill="#AE38B0"/>
<path d="M366 12.5C366 7.80558 369.806 4 374.5 4V4C379.194 4 383 7.80558 383 12.5V34.5C383 39.1944 379.194 43 374.5 43V43C369.806 43 366 39.1944 366 34.5V12.5Z" fill="#AE38B0"/>
<path d="M47 35.316C47 31.2755 50.2755 28 54.3161 28V28C58.3566 28 61.6322 31.2755 61.6322 35.316V60.2449C61.6322 64.2855 58.3566 67.561 54.3161 67.561V67.561C50.2755 67.561 47 64.2855 47 60.2449V35.316Z" fill="#FF0000"/>
<path d="M47 35.316C47 31.2755 50.2755 28 54.3161 28V28C58.3566 28 61.6322 31.2755 61.6322 35.316V55.3675C61.6322 59.4081 58.3566 62.6836 54.3161 62.6836V62.6836C50.2755 62.6836 47 59.4081 47 55.3675V35.316Z" fill="#FF459E"/>
<path d="M47 35.3161C47 31.2755 50.2755 28 54.3161 28V28C58.3566 28 61.6322 31.2755 61.6322 35.316V51.0321C61.6322 55.0726 58.3566 58.3481 54.3161 58.3481V58.3481C50.2755 58.3481 47 55.0726 47 51.0321V35.3161Z" fill="#C04FB5"/>
<path d="M47 35.3161C47 31.2755 50.2755 28 54.3161 28V28C58.3566 28 61.6322 31.2755 61.6322 35.316V45.0708C61.6322 49.1114 58.3566 52.3869 54.3161 52.3869V52.3869C50.2755 52.3869 47 49.1114 47 45.0708V35.3161Z" fill="#AE38B0"/>
<path d="M47 35.3161C47 31.2755 50.2755 28 54.3161 28V28C58.3566 28 61.6322 31.2755 61.6322 35.316V45.0708C61.6322 49.1114 58.3566 52.3869 54.3161 52.3869V52.3869C50.2755 52.3869 47 49.1114 47 45.0708V35.3161Z" fill="#AE38B0"/>
<path d="M47 35.3161C47 31.2755 50.2755 28 54.3161 28V28C58.3566 28 61.6322 31.2755 61.6322 35.316V45.0708C61.6322 49.1114 58.3566 52.3869 54.3161 52.3869V52.3869C50.2755 52.3869 47 49.1114 47 45.0708V35.3161Z" fill="#AE38B0"/>
<path d="M188.05 12.9031C188.05 8.26393 191.811 4.50314 196.45 4.50314V4.50314C201.089 4.50314 204.85 8.26392 204.85 12.9031V60.5931C204.85 65.2322 201.089 68.993 196.45 68.993V68.993C191.811 68.993 188.05 65.2322 188.05 60.5931V12.9031Z" fill="url(#paint0_linear)"/>
<path d="M287.252 12.1935C287.252 7.55436 291.012 3.79358 295.652 3.79358V3.79358C300.291 3.79358 304.051 7.55436 304.051 12.1935V59.8835C304.051 64.5227 300.291 68.2835 295.652 68.2835V68.2835C291.012 68.2835 287.252 64.5227 287.252 59.8835V12.1935Z" fill="#C04FB5"/>
<path d="M231 13.5C231 8.80558 234.806 5 239.5 5V5C244.194 5 248 8.80558 248 13.5V60.5C248 65.1944 244.194 69 239.5 69V69C234.806 69 231 65.1944 231 60.5V13.5Z" fill="url(#paint1_linear)"/>
<path d="M337.342 14.516C337.342 9.70586 341.241 5.80643 346.051 5.80643V5.80643C350.861 5.80643 354.761 9.70585 354.761 14.516V58.0641C354.761 62.8743 350.861 66.7737 346.051 66.7737V66.7737C341.241 66.7737 337.342 62.8743 337.342 58.0641V14.516Z" fill="#FF0000"/>
<path d="M189.842 18.1545C186.758 14.6896 187.066 9.37999 190.531 6.29516V6.29516C193.995 3.21033 199.305 3.51844 202.39 6.98335L245.407 55.301C248.492 58.7659 248.184 64.0755 244.719 67.1604V67.1604C241.254 70.2452 235.945 69.9371 232.86 66.4722L189.842 18.1545Z" fill="#C04FB5"/>
<path d="M289.586 17.4449C286.501 13.98 286.809 8.67042 290.274 5.58559V5.58559C293.739 2.50076 299.048 2.80888 302.133 6.27379L325.286 32.2798C328.371 35.7447 328.063 41.0543 324.598 44.1392V44.1392C321.133 47.224 315.824 46.9159 312.739 43.451L289.586 17.4449Z" fill="#F8439A"/>
<path d="M324.966 44.1717C321.604 47.3682 316.287 47.2339 313.091 43.8717V43.8717C309.894 40.5095 310.029 35.1927 313.391 31.9962L339.818 6.87173C343.18 3.67524 348.497 3.80955 351.693 7.17173V7.17173C354.89 10.5339 354.755 15.8508 351.393 19.0472L324.966 44.1717Z" fill="#E5408F"/>
<path d="M69.9422 19.5806C66.6317 17.276 65.8162 12.7241 68.1208 9.41354V9.41354C70.4254 6.10302 74.9773 5.28755 78.2879 7.59215L94.3943 18.8046C97.7049 21.1091 98.5203 25.6611 96.2157 28.9716V28.9716C93.9111 32.2821 89.3592 33.0976 86.0487 30.793L69.9422 19.5806Z" fill="url(#paint2_linear)"/>
<path d="M99.9081 10.3014C102.078 6.20121 107.162 4.63674 111.262 6.80705V6.80705C115.362 8.97736 116.927 14.0606 114.756 18.1608L90.8566 63.3122C88.6863 67.4124 83.6031 68.9769 79.5029 66.8066V66.8066C75.4027 64.6363 73.8382 59.553 76.0085 55.4528L99.9081 10.3014Z" fill="#C04FB5"/>
<path d="M0 11.0644C0 7.05592 3.24952 3.8064 7.25801 3.8064H33.3869C37.3954 3.8064 40.6449 7.05592 40.6449 11.0644V11.0644C40.6449 15.0729 37.3954 18.3224 33.3869 18.3224H7.25801C3.24952 18.3224 0 15.0729 0 11.0644V11.0644Z" fill="#FF8CF4"/>
<path d="M2.9032 11.0644C2.9032 7.05592 6.15272 3.8064 10.1612 3.8064H33.3869C37.3953 3.8064 40.6449 7.05592 40.6449 11.0644V11.0644C40.6449 15.0729 37.3953 18.3224 33.3869 18.3224H10.1612C6.15272 18.3224 2.9032 15.0729 2.9032 11.0644V11.0644Z" fill="#FF64EF"/>
<path d="M8.70961 11.0644C8.70961 7.05592 11.9591 3.8064 15.9676 3.8064H33.3869C37.3953 3.8064 40.6449 7.05592 40.6449 11.0644V11.0644C40.6449 15.0729 37.3953 18.3224 33.3869 18.3224H15.9676C11.9591 18.3224 8.70961 15.0729 8.70961 11.0644V11.0644Z" fill="#FF459E"/>
<path d="M389 35.3999C389 30.7608 392.761 27 397.4 27V27C402.039 27 405.8 30.7608 405.8 35.3999V35.3999C405.8 40.0391 402.039 43.7999 397.4 43.7999V43.7999C392.761 43.7999 389 40.0391 389 35.3999V35.3999Z" fill="#FFB6D9"/>
<path d="M389 34.858C389 30.5182 392.518 27 396.858 27H397.942C402.282 27 405.8 30.5182 405.8 34.858V34.858C405.8 39.1979 402.282 42.716 397.942 42.716H396.858C392.518 42.716 389 39.1979 389 34.858V34.858Z" fill="#FF459E"/>
<path d="M46 12.3999C46 7.76078 49.7608 4 54.3999 4V4C59.0391 4 62.7999 7.76078 62.7999 12.3999V12.3999C62.7999 17.0391 59.0391 20.7999 54.3999 20.7999V20.7999C49.7608 20.7999 46 17.0391 46 12.3999V12.3999Z" fill="#FF0000"/>
<path d="M259 34.258C259 30.2495 262.25 27 266.258 27V27C270.267 27 273.516 30.2495 273.516 34.258V60.3868C273.516 64.3953 270.267 67.6448 266.258 67.6448V67.6448C262.25 67.6448 259 64.3953 259 60.3868V34.258Z" fill="#B780FE"/>
<path d="M259 34.258C259 30.2495 262.25 27 266.258 27V27C270.267 27 273.516 30.2495 273.516 34.258V57.4836C273.516 61.4921 270.267 64.7416 266.258 64.7416V64.7416C262.25 64.7416 259 61.4921 259 57.4836V34.258Z" fill="#79ACFA"/>
<path d="M259 34.258C259 30.2495 262.25 27 266.258 27V27C270.267 27 273.516 30.2495 273.516 34.258V48.774C273.516 52.7825 270.267 56.032 266.258 56.032V56.032C262.25 56.032 259 52.7825 259 48.774V34.258Z" fill="#657DF8"/>
<path d="M258 12.3999C258 7.76078 261.761 4 266.4 4V4C271.039 4 274.8 7.76078 274.8 12.3999V12.3999C274.8 17.0391 271.039 20.7999 266.4 20.7999V20.7999C261.761 20.7999 258 17.0391 258 12.3999V12.3999Z" fill="#FF0000"/>
<mask id="mask0" mask-type="alpha" maskUnits="userSpaceOnUse" x="116" y="3" width="65" height="66">
<path d="M116.128 36.2062C116.128 18.3123 130.634 3.8064 148.528 3.8064V3.8064C166.422 3.8064 180.928 18.3123 180.928 36.2062V36.2062C180.928 54.1001 166.422 68.606 148.528 68.606V68.606C130.634 68.606 116.128 54.1001 116.128 36.2062V36.2062Z" fill="#FF0000"/>
</mask>
<g mask="url(#mask0)">
<rect x="113.335" y="-9.60037" width="71.503" height="91.6132" rx="34.5" fill="url(#paint3_radial)"/>
<rect x="142.942" y="28.9442" width="13.9654" height="15.0827" rx="6.98271" fill="white"/>
<rect x="70.8802" y="-7.36591" width="77.6478" height="86.5856" fill="url(#paint4_linear)"/>
</g>
<path d="M23.3031 34.5804C23.3031 29.9412 27.0639 26.1804 31.703 26.1804V26.1804C36.3422 26.1804 40.103 29.9412 40.103 34.5804V34.5804C40.103 39.2195 36.3422 42.9803 31.703 42.9803V42.9803C27.0639 42.9803 23.3031 39.2195 23.3031 34.5804V34.5804Z" fill="#A6B4FF"/>
<path d="M23.3031 34.0384C23.3031 29.6986 26.8212 26.1804 31.1611 26.1804H32.245C36.5848 26.1804 40.103 29.6986 40.103 34.0384V34.0384C40.103 38.3783 36.5848 41.8964 32.245 41.8964H31.1611C26.8212 41.8964 23.3031 38.3783 23.3031 34.0384V34.0384Z" fill="#657DF8"/>
<path d="M389 57.3999C389 52.7608 392.761 49 397.4 49V49C402.039 49 405.8 52.7608 405.8 57.3999V57.3999C405.8 62.0391 402.039 65.7999 397.4 65.7999V65.7999C392.761 65.7999 389 62.0391 389 57.3999V57.3999Z" fill="#A6B4FF"/>
<path d="M389 56.858C389 52.5182 392.518 49 396.858 49H397.942C402.282 49 405.8 52.5182 405.8 56.858V56.858C405.8 61.1979 402.282 64.716 397.942 64.716H396.858C392.518 64.716 389 61.1979 389 56.858V56.858Z" fill="#657DF8"/>
<path d="M389 12.3999C389 7.76078 392.761 4 397.4 4V4C402.039 4 405.8 7.76078 405.8 12.3999V12.3999C405.8 17.0391 402.039 20.7999 397.4 20.7999V20.7999C392.761 20.7999 389 17.0391 389 12.3999V12.3999Z" fill="#FF0000"/>
<defs>
<linearGradient id="paint0_linear" x1="196.45" y1="4.50314" x2="196.45" y2="68.993" gradientUnits="userSpaceOnUse">
<stop stop-color="#C6367B"/>
<stop offset="1" stop-color="#FF459E"/>
</linearGradient>
<linearGradient id="paint1_linear" x1="239.5" y1="5" x2="239.5" y2="69" gradientUnits="userSpaceOnUse">
<stop stop-color="#E74090"/>
<stop offset="1" stop-color="#C62C75"/>
</linearGradient>
<linearGradient id="paint2_linear" x1="68.1208" y1="9.41354" x2="96.2157" y2="28.9716" gradientUnits="userSpaceOnUse">
<stop stop-color="#EC5D99"/>
<stop offset="0.802083" stop-color="#BD4578"/>
</linearGradient>
<radialGradient id="paint3_radial" cx="0" cy="0" r="1" gradientUnits="userSpaceOnUse" gradientTransform="translate(149.087 36.2062) rotate(90) scale(45.8066 35.7515)">
<stop stop-color="#FFBDDD"/>
<stop offset="0.854167" stop-color="#FF5656"/>
</radialGradient>
<linearGradient id="paint4_linear" x1="109.704" y1="-7.36591" x2="109.704" y2="79.2197" gradientUnits="userSpaceOnUse">
<stop stop-color="#FF5C00"/>
<stop offset="1" stop-color="#FF965A"/>
</linearGradient>
</defs>
</svg>
